<?xml version="1.0" standalone="no"?>
<!DOCTYPE svg PUBLIC "-//W3C//DTD SVG 20010904//EN"
 "http://www.w3.org/TR/2001/REC-SVG-20010904/DTD/svg10.dtd">
<svg version="1.0" xmlns="http://www.w3.org/2000/svg"
 width="79.000000pt" height="79.000000pt" viewBox="0 0 79.000000 79.000000"
 preserveAspectRatio="xMidYMid meet">
<metadata>
Created by potrace 1.11, written by Peter Selinger 2001-2013
</metadata>
<g transform="translate(0.000000,79.000000) scale(0.100000,-0.100000)"
fill="#000000" stroke="none">
<path d="M470 745 c-126 -33 -340 -187 -387 -278 -38 -74 10 -117 132 -120 41
-1 76 1 78 5 1 4 9 3 17 -2 22 -13 -4 -56 -101 -170 -77 -90 -98 -127 -84
-149 8 -13 53 9 98 47 49 42 201 193 230 230 l27 34 0 -66 0 -66 115 0 c94 0
115 3 115 15 0 11 -20 15 -97 17 l-98 3 0 35 0 35 93 0 c77 0 92 2 92 15 0 13
-15 16 -80 17 -115 1 -109 0 -106 31 2 15 4 29 5 32 0 3 43 5 94 5 75 0 92 3
92 15 0 12 -14 15 -65 16 -36 1 -68 2 -72 3 -4 0 1 16 12 34 19 30 26 77 14
89 -3 3 -21 1 -40 -5 -41 -12 -85 -54 -119 -112 -29 -49 -79 -179 -66 -171 5
4 15 23 22 44 30 92 106 192 160 211 45 15 46 -4 5 -64 -15 -22 -29 -30 -48
-30 -26 1 -28 -2 -28 -37 0 -42 -13 -59 -150 -200 -88 -90 -156 -148 -173
-148 -10 0 16 44 46 75 27 28 122 156 136 182 15 30 4 53 -28 54 -80 4 -93 3
-97 -3 -4 -6 -27 -3 -82 14 -107 32 14 180 243 295 92 47 160 59 207 36 14 -7
28 -18 31 -25 4 -9 6 -7 6 3 1 9 -7 27 -17 39 -21 26 -70 32 -132 15z"/>
</g>
</svg>
